0.16m3min_grf.mot
version=1
nRows=30
nColumns 19
inDegrees=yes
endheader
time	1_ground_force_vx	1_ground_force_vy	1_ground_force_vz	1_ground_force_px	1_ground_force_py	1_ground_force_pz	1_ground_torque_x	1_ground_torque_y	1_ground_torque_z	2_ground_force_vx	2_ground_force_vy	2_ground_force_vz	2_ground_force_px	2_ground_force_py	2_ground_force_pz	2_ground_torque_x	2_ground_torque_y	2_ground_torque_z
            0.005000	           49.247138	         1182.309436	         -106.531632	           -0.267376	            0.005969	           -0.347617	            0.301899	            7.247904	           -0.653070	          165.493322	         1595.037714	          142.741913	           -0.293543	            0.005382	           -0.686062	           -1.037605	          -10.000522	           -0.894959
            0.005500	           57.816781	         1205.563110	         -105.948778	           -0.269580	            0.005971	           -0.348064	            0.377028	            7.861578	           -0.690901	          176.328821	         1616.645100	          136.478830	           -0.295187	            0.005374	           -0.685442	           -1.156824	          -10.606169	           -0.895384
            0.006000	           66.480861	         1229.352653	         -104.217438	           -0.271504	            0.005972	           -0.348430	            0.470744	            8.704913	           -0.737952	          188.612332	         1639.722654	          132.519900	           -0.296766	            0.005367	           -0.685117	           -1.271007	          -11.049640	           -0.893015
            0.006500	           74.918313	         1252.056734	         -101.527196	           -0.273476	            0.005974	           -0.348950	            0.562653	            9.403218	           -0.762491	          202.127110	         1659.480412	          131.223505	           -0.298202	            0.005361	           -0.684816	           -1.412524	          -11.596940	           -0.917029
            0.007000	           83.170187	         1276.206003	          -99.609863	           -0.275342	            0.005975	           -0.349225	            0.635480	            9.751129	           -0.761091	          215.796830	         1675.367858	          130.945684	           -0.299385	            0.005356	           -0.684506	           -1.559250	          -12.105448	           -0.946154
            0.007500	           91.739638	         1297.477768	          -99.264786	           -0.277126	            0.005976	           -0.349682	            0.685513	            9.695246	           -0.741744	          228.347495	         1689.777783	          130.756927	           -0.300338	            0.005352	           -0.684469	           -1.701903	          -12.594132	           -0.974548
            0.008000	          100.488744	         1319.657022	         -100.337853	           -0.278769	            0.005978	           -0.350153	            0.729219	            9.576384	           -0.728124	          238.949004	         1698.846533	          128.813620	           -0.301275	            0.005348	           -0.684164	           -1.846852	          -13.130490	           -0.995608
            0.008500	          110.475842	         1338.772680	         -101.564687	           -0.280305	            0.005979	           -0.350414	            0.806442	            9.772662	           -0.741394	          247.217126	         1705.151516	          124.937408	           -0.302046	            0.005344	           -0.683868	           -1.946656	          -13.426837	           -0.983792
            0.009000	          120.831458	         1357.524867	         -102.106136	           -0.281482	            0.005979	           -0.350527	            0.912048	           10.246731	           -0.770707	          254.040878	         1709.062354	          119.551557	           -0.302296	            0.005342	           -0.683674	           -2.012535	          -13.539347	           -0.947098
            0.009500	          130.640717	         1371.765287	         -101.473296	           -0.282689	            0.005981	           -0.350882	            1.043119	           10.953048	           -0.810227	          260.360580	         1709.841245	          114.154772	           -0.302522	            0.005341	           -0.683549	           -2.063814	          -13.553490	           -0.904877
            0.010000	          140.179671	         1385.636999	          -98.961217	           -0.283587	            0.005981	           -0.351094	            1.166217	           11.527730	           -0.823302	          266.233289	         1704.902169	          110.802637	           -0.302701	            0.005339	           -0.683226	           -2.146782	          -13.747542	           -0.893461
            0.010500	          148.618223	         1395.544045	          -96.830275	           -0.284492	            0.005982	           -0.351354	            1.239979	           11.643556	           -0.807892	          271.499021	         1699.587045	          109.045019	           -0.302643	            0.005339	           -0.683191	           -2.232308	          -13.974273	           -0.896585
            0.011000	          156.597315	         1405.453015	          -95.110879	           -0.285078	            0.005982	           -0.351320	            1.272234	           11.418235	           -0.772703	          275.040000	         1692.049871	          108.922729	           -0.302255	            0.005341	           -0.683348	           -2.316621	          -14.251882	           -0.917440
            0.011500	          164.253433	         1409.778904	          -94.652777	           -0.285384	            0.005983	           -0.351466	            1.304694	           11.198122	           -0.751844	          276.053727	         1683.766909	          108.892743	           -0.301529	            0.005344	           -0.683502	           -2.355425	          -14.366718	           -0.929126
            0.012000	          171.265837	         1411.585140	          -95.166873	           -0.285541	            0.005982	           -0.351461	            1.363975	           11.241976	           -0.757917	          274.266365	         1672.712218	          108.619448	           -0.300876	            0.005347	           -0.683621	           -2.372120	          -14.467225	           -0.939446
            0.012500	          177.773816	         1410.327788	          -95.967987	           -0.285503	            0.005982	           -0.351425	            1.457031	           11.559023	           -0.786552	          269.811982	         1660.547439	          107.076296	           -0.300048	            0.005350	           -0.683548	           -2.327597	          -14.325105	           -0.923719
            0.013000	          182.861880	         1406.905720	          -96.453854	           -0.285284	            0.005982	           -0.351327	            1.570104	           12.080088	           -0.828180	          263.392475	         1647.639905	          105.343640	           -0.299051	            0.005354	           -0.683535	           -2.231226	          -13.957333	           -0.892377
            0.013500	          186.255750	         1404.380947	          -96.060396	           -0.284932	            0.005981	           -0.351156	            1.625057	           12.253043	           -0.838115	          256.081235	         1635.278217	          104.504975	           -0.297918	            0.005358	           -0.683586	           -2.137294	          -13.648286	           -0.872215
            0.014000	          188.415320	         1396.623631	          -94.677444	           -0.284481	            0.005981	           -0.351095	            1.627256	           12.061991	           -0.817685	          248.074515	         1621.067106	          105.161722	           -0.296775	            0.005362	           -0.683541	           -2.087376	          -13.640164	           -0.884864
            0.014500	          189.382885	         1389.947910	          -93.241043	           -0.283948	            0.005981	           -0.351003	            1.565714	           11.491328	           -0.770866	          239.221302	         1607.951556	          107.606054	           -0.295475	            0.005368	           -0.683867	           -2.036536	          -13.688796	           -0.916071
            0.015000	          189.340158	         1381.472570	          -92.635284	           -0.283207	            0.005980	           -0.350891	            1.515155	           11.054945	           -0.741294	          228.772415	         1595.746546	          111.274464	           -0.293953	            0.005375	           -0.684295	           -1.983968	          -13.838688	           -0.964998
            0.015500	          188.423016	         1371.921821	          -93.499374	           -0.282359	            0.005980	           -0.350718	            1.505987	           10.965205	           -0.747302	          216.313492	         1582.246632	          114.610642	           -0.292549	            0.005380	           -0.684343	           -1.888114	          -13.810795	           -1.000390
            0.016000	          185.762286	         1362.012895	          -95.002678	           -0.281424	            0.005979	           -0.350531	            1.518573	           11.134205	           -0.776629	          202.164591	         1569.661940	          117.763111	           -0.290977	            0.005387	           -0.684618	           -1.746377	          -13.559356	           -1.017284
            0.016500	          182.228309	         1354.270256	          -97.228238	           -0.280374	            0.005978	           -0.350206	            1.539064	           11.437897	           -0.821170	          188.012384	         1557.818831	          119.510364	           -0.289358	            0.005393	           -0.684664	           -1.583721	          -13.122278	           -1.006695
            0.017000	          176.313241	         1344.720311	          -98.492641	           -0.279376	            0.005978	           -0.350065	            1.492921	           11.386331	           -0.833980	          173.864748	         1544.687347	          121.065306	           -0.287824	            0.005398	           -0.684709	           -1.423007	          -12.642591	           -0.990867
            0.017500	          169.069434	         1336.971057	          -99.333316	           -0.278114	            0.005977	           -0.349879	            1.392899	           11.014798	           -0.818370	          160.462304	         1532.845606	          123.187666	           -0.286263	            0.005405	           -0.684894	           -1.282007	          -12.246604	           -0.984203
            0.018000	          160.086030	         1326.333874	          -99.402473	           -0.277199	            0.005976	           -0.349655	            1.239798	           10.271891	           -0.769830	          147.856203	         1521.186469	          126.530474	           -0.284696	            0.005411	           -0.685068	           -1.186949	          -12.211664	           -1.015752
            0.018500	          150.869659	         1320.028134	         -100.644771	           -0.275990	            0.005975	           -0.349394	            1.113019	            9.738320	           -0.742492	          135.154842	         1510.075795	          130.907712	           -0.283063	            0.005418	           -0.685342	           -1.099205	          -12.281340	           -1.064663
            0.019000	          140.368136	         1311.021608	         -102.720876	           -0.274805	            0.005975	           -0.349344	            1.013582	            9.466739	           -0.741736	          121.892665	         1498.594430	          135.424667	           -0.281424	            0.005425	           -0.685646	           -0.993569	          -12.215313	           -1.103871
            0.019500	          130.091711	         1304.004751	         -106.302289	           -0.273555	            0.005974	           -0.348946	            0.963311	            9.655969	           -0.787153	          108.300149	         1487.667299	          139.052075	           -0.279859	            0.005431	           -0.685784	           -0.871871	          -11.976473	           -1.119439
